<?xml version="1.0" encoding="UTF-8" standalone="no"?><svg xmlns="http://www.w3.org/2000/svg" xmlns:xlink="http://www.w3.org/1999/xlink" fill="#000000" height="940" preserveAspectRatio="xMidYMid meet" version="1" viewBox="35.7 30.0 1128.7 940.0" width="1128.7" zoomAndPan="magnify"><g fill="#fcb942" id="change1_1"><path d="M195.473 970.02L101.442 970.02 133.138 317.083 195.473 317.083 195.473 970.02z"/><path d="M1004.527 970.02L1098.558 970.02 1066.862 317.083 1004.527 317.083 1004.527 970.02z"/></g><g><g id="change2_5"><path d="M1033.688,377.346H166.78c-93.809,0-131.107-152.367-131.107-152.367,37.073,45.714,85.15,77.32,324.362,77.32h479.93c239.212,0,287.289-31.606,324.362-77.32,0,0-36.83,152.367-130.639,152.367Z" fill="#000000"/></g><g id="change1_2"><path d="M91.157,276.68c15.58,16.182,39.878,24.18,60.909,30.207,13.556,3.885,27.426,7.196,41.308,9.683,14.861,2.663,30.777,5.994,45.921,4.836,1.54-.118,1.96-2.296,.374-2.762-14.146-4.161-29.414-4.891-43.94-7.289-13.776-2.274-27.433-4.685-40.937-8.285-22.398-5.972-43.458-14.497-62.329-28.084-1.019-.734-2.129,.839-1.306,1.693h0Z" fill="#fcb942"/></g><g id="change1_3"><path d="M1110.794,274.987c-19.643,14.262-41.907,22.885-65.317,28.887-13.896,3.563-27.934,5.965-42.096,8.176-15.477,2.417-31.726,3.114-46.845,7.298-1.59,.44-1.165,2.644,.374,2.762,15.816,1.212,32.388-2.068,47.949-4.699,14.562-2.462,29.126-5.774,43.36-9.709,22.014-6.086,47.533-14.175,63.882-31.022,.819-.844-.282-2.437-1.306-1.693h0Z" fill="#fcb942"/></g></g><g fill="#fcb942" id="change1_4"><path d="M328.473 970.02L234.442 970.02 266.138 168.083 328.473 168.083 328.473 970.02z"/><path d="M871.527 970.02L965.558 970.02 933.862 168.083 871.527 168.083 871.527 970.02z"/></g><g id="change2_6"><path d="M921.188,182.346H279.28c-93.809,0-131.107-152.367-131.107-152.367,37.073,45.714,85.15,77.32,324.362,77.32h254.93c239.212,0,287.289-31.606,324.362-77.32,0,0-36.83,152.367-130.639,152.367Z" fill="#000000"/></g><g id="change2_7"><path d="M207.501 230.418H992.499V280.075H207.501z" fill="#000000"/></g><g id="change2_1" opacity="0.42"><path d="M275.961,300.86h0c-.608-1.604-3.447-2.12-3.797,0-.971,5.878-1.261,10.745-1.663,17.172-.955,15.242-1.893,30.482-2.722,45.731-2.716,49.966-3.658,100.033-5.102,150.047-1.763,61.059-3.863,122.107-5.824,183.161-1.732,53.906-3.466,107.813-5.214,161.718-.603,18.59-1.207,37.18-1.82,55.77-.332,10.066-2.035,21.054-.343,31.008,.146,.859,.293,1.719,.435,2.579,.213,1.29,1.57,2.542,2.814,2.814l.031,.007c-.952-1.251-1.904-2.501-2.856-3.752-.025,.612-.266,1.051,.112-.497-1.187,4.864,6.314,6.939,7.503,2.069,.124-.509,.145-1.049,.166-1.572-.952,1.251-1.904,2.501-2.856,3.752l.042-.007c1.317-.211,2.505-1.574,2.814-2.814,1.949-7.833,1.678-15.669,1.932-23.715,.53-16.826,1.05-33.653,1.569-50.48,1.599-51.858,3.18-103.716,4.76-155.574,1.863-61.156,3.511-122.319,5.559-183.469,1.75-52.247,4.186-104.533,4.839-156.809,.214-17.119,.248-34.239,.244-51.358-.001-5.355-.003-10.71-.003-16.065,0-.878,.076-1.791,0-2.665-.059-.676-.301-1.392-.353-2.023,.179,2.173,.174,.256,.17-.203-.008-.935,.012-2.29-.269-3.186-.102-.324-.07-.769-.093-1.115-1.223,.331-2.446,.662-3.669,.994h0c1.167,1.727,4.438,.697,3.598-1.517h0Z" fill="#000000"/></g><g id="change2_19" opacity="0.42"><path d="M135.602,364.023c-.245-.654,.071-.91-.17,.186-.218,.989-.302,2.019-.472,3.017-.5,2.947-.741,8.203-1.015,12.146-.984,14.171-1.97,28.34-2.855,42.518-2.877,46.11-3.986,92.34-5.632,138.506-2.003,56.161-4.362,112.306-6.583,168.459-1.963,49.65-3.934,99.299-5.923,148.948-.673,16.794-1.347,33.589-2.03,50.383-.365,8.982-2.186,19.094-.361,27.949,.306,1.487,.359,2.552,1.476,3.817-.38-.917-.76-1.834-1.14-2.751-.029,.581-.26,.909,.112-.584-1.211,4.859,6.291,6.933,7.503,2.069,.118-.474,.142-.992,.166-1.484l-1.14,2.751c1.879-1.746,2.572-6.773,2.715-9.088,.279-4.531,.242-9.095,.419-13.632,.601-15.368,1.191-30.736,1.78-46.104,1.832-47.801,3.643-95.604,5.447-143.406,2.141-56.71,4.062-113.43,6.372-170.133,1.964-48.192,4.788-96.46,5.407-144.693,.201-15.677,.345-31.352,.371-47.031,.008-4.798,.011-9.596,.012-14.394,0-.783,.03-1.571,.009-2.353-.041-1.464-.216-1.712-.119-.831-.041-.372-.092-.752-.107-1.126-.037-.925-.108-1.947-.281-2.859-.112-.588-.005-1.28-.367-1.798-1.184-1.691-4.438-.721-3.598,1.517h0Z" fill="#000000"/></g><g id="change2_2" opacity="0.42"><path d="M931.637,302.377h0c-1.223-.331-2.446-.663-3.669-.994-.102,1.496-.292,2.988-.378,4.485-.027,.473,.011,2.108,.185,.019-.053,.64-.295,1.34-.353,2.023-.081,.961,0,1.964,0,2.929,0,2.398,0,4.795-.001,7.193-.003,15.245,.008,30.487,.129,45.731,.398,50.029,2.575,100.049,4.249,150.047,2.044,61.048,3.754,122.106,5.613,183.161,1.641,53.906,3.284,107.812,4.942,161.718,.572,18.59,1.145,37.18,1.726,55.77,.313,10.01-.775,21.244,1.608,31.008,.21,.86,.419,1.72,.633,2.579,.308,1.239,1.496,2.602,2.814,2.814l.042,.007c-.952-1.251-1.904-2.501-2.856-3.752,.022,.523,.042,1.063,.166,1.572,1.187,4.862,8.693,2.803,7.503-2.069,.378,1.548,.137,1.109,.112,.497-.952,1.251-1.904,2.501-2.856,3.752l.031-.007c1.243-.272,2.6-1.524,2.814-2.814,1.317-7.968,.686-15.649,.418-23.715-.558-16.826-1.106-33.653-1.654-50.48-1.686-51.858-3.355-103.716-5.022-155.574-1.966-61.156-4.136-122.307-5.902-183.469-1.509-52.256-2.333-104.593-4.934-156.809-.853-17.127-1.885-34.244-2.957-51.358-.522-8.332-.26-17.348-2.042-24.7-.085-.35-.102-.724-.161-1.08-.35-2.116-3.189-1.605-3.797,0h0c-.832,2.194,2.419,3.262,3.598,1.517h0Z" fill="#000000"/></g><g id="change2_21" opacity="0.42"><path d="M1062.329,339.776h0c-1.12-.464-2.241-.928-3.361-1.392-.292,5.715-.412,10.209-.333,16.415,.186,14.596,.39,29.188,.7,43.781,1.018,47.92,3.823,95.81,6.114,143.683,2.795,58.39,5.255,116.794,7.865,175.192,2.315,51.811,4.631,103.622,6.963,155.432,.798,17.733,1.597,35.465,2.404,53.198,.433,9.516-.508,20.333,1.977,29.569,.219,.812,.437,1.625,.659,2.436,.346,1.263,1.468,2.563,2.811,2.811l.043,.008c-.952-1.251-1.904-2.501-2.856-3.752,.028,.505,.049,1.047,.171,1.528,1.23,4.851,8.737,2.795,7.503-2.069,.377,1.488,.14,1.133,.107,.54-.952,1.251-1.904,2.501-2.856,3.752l.028-.008c1.237-.351,2.596-1.463,2.811-2.811,1.226-7.69,.51-15.039,.141-22.811-.76-15.986-1.509-31.972-2.258-47.959-2.327-49.686-4.637-99.372-6.945-149.059-2.725-58.653-5.655-117.299-8.181-175.961-2.159-50.136-3.672-100.358-6.877-150.442-1.054-16.469-2.324-32.923-3.612-49.375-.625-7.982-.492-16.587-2.335-23.593-.088-.334-.109-.691-.175-1.031-.329-1.699-2.798-1.866-3.598-.47h0c-1.096,1.912,1.52,4.03,3.092,2.386h0Z" fill="#000000"/></g><g id="change2_4" opacity="0.42"><path d="M273.395,189.837c-.501,2.599-1.472,4.337-1.721,7.03-.275,2.97-.549,5.94-.824,8.91-.545,5.893-1.378,11.902-1.262,17.82,.035,1.772,2.9,2.325,3.223,.436,.912-5.343,1.047-10.868,1.359-16.276,.152-2.64,.305-5.28,.457-7.92,.095-1.641,.309-3.309,.286-4.95-.028-1.974-.677-2.408-.781-4.95-.016-.402-.653-.534-.737-.1h0Z" fill="#000000"/></g><g id="change2_20" opacity="0.42"><path d="M926.225,190.701c-.784,5.741-.065,11.754,.099,17.535,.135,4.772-.99,11.716,1.887,15.733,.303,.423,1.02,.546,1.295,0,2.215-4.402,.484-10.909,.271-15.733-.255-5.759,.031-11.981-1.653-17.535-.256-.844-1.758-1.025-1.898,0h0Z" fill="#000000"/></g><g id="change2_8"><path d="M665.335,218.627h-130.67v-26.074h130.67v26.074Zm-124.67-6h118.67v-14.074h-118.67v14.074Z" fill="#000000"/></g><g fill="#000000" id="change2_3"><path d="M503.422,218.099h-130.67v-26.074h130.67v26.074Zm-124.67-6h118.67v-14.074h-118.67v14.074Z"/><path d="M827.248,218.627h-130.67v-26.074h130.67v26.074Zm-124.67-6h118.67v-14.074h-118.67v14.074Z"/></g><g id="change2_9"><path d="M328.473 202.59H375.752V208.59H328.473z" fill="#000000"/></g><g id="change2_10"><path d="M500.687 201.533H537.666V207.533H500.687z" fill="#000000"/></g><g id="change2_11"><path d="M662.335 202.062H699.3140000000001V208.062H662.335z" fill="#000000"/></g><g id="change2_12"><path d="M823.983 203.118H871.526V209.118H823.983z" fill="#000000"/></g><g id="change2_13"><path d="M435.087 182.346H441.087V195.025H435.087z" fill="#000000"/></g><g id="change2_14"><path d="M597 181.818H603V194.496H597z" fill="#000000"/></g><g id="change2_15"><path d="M758.648 181.818H764.648V194.496H758.648z" fill="#000000"/></g><g id="change2_16"><path d="M758.648 217.74H764.648V230.419H758.648z" fill="#000000"/></g><g id="change2_17"><path d="M597 217.74H603V230.419H597z" fill="#000000"/></g><g id="change2_18"><path d="M435.352 217.74H441.352V230.419H435.352z" fill="#000000"/></g><g id="change1_5"><path d="M203.657,81.68c19.701,19.161,49.324,27.567,75.33,33.778,34.412,8.219,70.021,12.58,105.269,15.156,20.175,1.474,40.772,3.145,60.963,1.369,1.444-.127,2.061-2.53,.374-2.762-16.886-2.325-34.053-2.618-51.062-3.601-17.93-1.036-35.877-2.357-53.741-4.218-32.466-3.381-65.665-9.002-96.38-20.353-13.956-5.158-27.424-11.749-39.227-20.894-1.062-.823-2.551,.527-1.525,1.525h0Z" fill="#fcb942"/></g><g id="change1_6"><path d="M998.076,80.155c-22.363,17.326-50.477,25.87-77.717,31.918-34.373,7.632-69.443,10.872-104.523,13.115-19.363,1.238-38.942,1.385-58.171,4.033-1.673,.23-1.086,2.634,.374,2.762,17.847,1.569,35.998,.319,53.845-.871,18.502-1.234,36.882-3.179,55.27-5.561,32.533-4.215,65.632-9.914,96.226-22.164,13.047-5.224,26.063-11.827,36.221-21.706,1.025-.997-.462-2.348-1.525-1.525h0Z" fill="#fcb942"/></g></svg>