<?xml version="1.0" encoding="UTF-8"?><svg xmlns="http://www.w3.org/2000/svg" xmlns:xlink="http://www.w3.org/1999/xlink" clip-rule="evenodd" fill-rule="evenodd" height="1731.7" image-rendering="optimizeQuality" preserveAspectRatio="xMidYMid meet" shape-rendering="geometricPrecision" text-rendering="geometricPrecision" version="1.0" viewBox="9.0 -1.1 1690.3 1731.7" width="1690.3" zoomAndPan="magnify"><g><g><g id="change1_1"><path d="M806.59 1493.91c-95.64,-31.28 -212.41,-88.24 -251.46,-179.71 -8.57,-20.09 -12.84,-41.44 -11.52,-62.07 -135.84,-99.03 -217.67,-256.9 -217.67,-426.15l0 -297.3c0,-21.35 17.33,-38.68 38.68,-38.68l977.43 0c21.35,0 38.68,17.33 38.68,38.68l0 297.3c0,169.19 -81.87,327.13 -217.67,426.15 1.32,20.63 -2.94,41.98 -11.52,62.07 -39.06,91.5 -155.88,148.46 -251.54,179.73 3.7,11.15 7.99,22.13 12.11,31.73 18.26,42.53 44.25,81.98 77.66,114.14 36.5,35.14 -17.07,90.8 -53.56,55.67 -33.95,-32.69 -61.66,-71.52 -82.87,-113.57 -21.21,42.06 -48.92,80.88 -82.87,113.57 -36.5,35.13 -90.07,-20.53 -53.56,-55.67 34.63,-33.33 61.29,-74.54 79.61,-118.87 3.45,-8.35 6.96,-17.58 10.08,-27.02zm47.44 -137.11c34.55,-77.84 84.71,-158.2 152.81,-187.28 37.47,-16 80.6,-17.14 113.86,5.95l1.32 -1.32 6.85 7.06c109.28,-84.96 174.48,-215.33 174.48,-355.22l0 -258.62 -900.07 0 0 258.62c0,139.89 65.2,270.26 174.48,355.22l6.85 -7.06 1.32 1.32c33.26,-23.09 76.39,-21.95 113.86,-5.95 69.91,29.85 120.2,109.2 154.22,187.28zm59.78 50.43c63.23,-24.45 142.12,-65.89 166.64,-123.32 5.1,-11.96 9.69,-31.85 -0.89,-42.44l-1.02 -1.02c-10.83,-9.27 -29.85,-4.8 -41.43,0.15 -57.43,24.51 -98.87,103.41 -123.31,166.64zm-120.98 0c-24.44,-63.23 -65.89,-142.13 -123.31,-166.64 -11.56,-4.93 -30.56,-9.41 -41.39,-0.17l-1.05 1.05c-10.57,10.57 -5.98,30.48 -0.88,42.43 24.52,57.43 103.41,98.87 166.64,123.32z" fill="#a0a0a0"/></g><g><g id="change2_1"><path d="M1668.6 567.37l-1630.61 0c-20.94,0 -29.02,-27.5 -11.41,-38.84l815.15 -525.16c6.96,-4.48 15.9,-4.48 22.86,0l813.16 523.88c21.51,12.03 11.41,40.12 -9.14,40.12z"/></g><g id="change3_1"><path d="M1332.02 567.37l-957.75 0 435.49 -543.41 31.96 -20.59c6.96,-4.48 15.9,-4.48 22.86,0l31.94 20.57 435.51 543.43z" fill="#ffb800"/></g><g id="change4_1"><path d="M1088.66 567.37l-461.86 0 0.01 -0.02 200.64 -554.8 14.27 -9.19c6.96,-4.48 15.9,-4.48 22.86,0l14.6 9.41 209.48 554.59z" fill="#f63"/></g><g id="change5_1"><path d="M1677.74 527.25l-781.22 -503.31 406.38 507.08 26.74 33.37 2.39 2.98 336.57 0c20.56,0 30.65,-28.09 9.14,-40.12z" fill="#fb505a"/></g><g id="change5_2"><path d="M403.41 531.01l406.35 -507.06 -783.19 504.57c-17.61,11.33 -9.52,38.84 11.41,38.84l336.29 0 2.41 -3 26.73 -33.35z" fill="#fb505a"/></g></g></g></g></svg>