<?xml version="1.0" encoding="UTF-8"?><svg xmlns="http://www.w3.org/2000/svg" xmlns:xlink="http://www.w3.org/1999/xlink" height="492.9" preserveAspectRatio="xMidYMid meet" version="1.0" viewBox="0.0 0.0 500.0 492.9" width="500.0" zoomAndPan="magnify"><g><g id="change1_2"><path d="M6.27,492.93c-3.46,0-6.27-2.81-6.27-6.27V254.41c0-3.46,2.81-6.27,6.27-6.27 c133.36,0,241.86-108.5,241.86-241.86c0-3.46,2.81-6.27,6.27-6.27h239.31c3.46,0,6.27,2.81,6.27,6.27s-2.81,6.27-6.27,6.27H260.61 c-3.29,135.31-112.75,244.77-248.06,248.06v226.05C12.55,490.12,9.74,492.93,6.27,492.93z" fill="#F1B561"/></g><g id="change1_3"><path d="M37.61,492.93c-3.46,0-6.27-2.81-6.27-6.27v-326.3c0-3.46,2.81-6.27,6.27-6.27h110.81V42.75 c0-3.46,2.81-6.27,6.27-6.27h339.03c3.46,0,6.27,2.81,6.27,6.27s-2.81,6.27-6.27,6.27H160.97v111.34c0,3.46-2.81,6.27-6.27,6.27 H43.89v320.02C43.89,490.12,41.08,492.93,37.61,492.93z" fill="#F1B561"/></g><g id="change1_1"><path d="M121.11,204.35H78.56c-3.46,0-6.27-2.81-6.27-6.27v-71.39H37.61c-3.46,0-6.27-2.81-6.27-6.27V42.75 c0-3.46,2.81-6.27,6.27-6.27h83.5c3.46,0,6.27,2.81,6.27,6.27v32.69h66.45c3.46,0,6.27,2.81,6.27,6.27v38.7 c0,3.46-2.81,6.27-6.27,6.27h-66.45v71.39C127.39,201.54,124.58,204.35,121.11,204.35z M84.83,191.8h30.01v-65.11H84.83V191.8z M127.39,114.14h60.17V87.99h-60.17V114.14z M84.83,114.14h30.01V87.99H84.83V114.14z M43.89,114.14h28.4V81.71 c0-3.46,2.81-6.27,6.27-6.27h36.28V49.02H43.89V114.14z" fill="#F1B561"/></g><g id="change1_4"><path d="M6.27,300.82c-3.46,0-6.27-2.81-6.27-6.27s2.81-6.27,6.27-6.27c154.81,0,280.77-125.95,280.77-280.77 c0-3.46,2.81-6.27,6.27-6.27s6.27,2.81,6.27,6.27C299.59,169.23,168.01,300.82,6.27,300.82z" fill="#F1B561"/></g></g></svg>