<?xml version="1.0" encoding="UTF-8"?><svg xmlns="http://www.w3.org/2000/svg" xmlns:xlink="http://www.w3.org/1999/xlink" height="43.2" preserveAspectRatio="xMidYMid meet" version="1.0" viewBox="28.1 28.4 43.7 43.2" width="43.7" zoomAndPan="magnify"><linearGradient gradientUnits="userSpaceOnUse" id="a" x1="30.557" x2="69.394" xlink:actuate="onLoad" xlink:show="other" xlink:type="simple" xmlns:xlink="http://www.w3.org/1999/xlink" y1="30.255" y2="69.092"><stop offset="0" stop-color="#ffbb53"/><stop offset=".313" stop-color="#ffc05c"/><stop offset="1" stop-color="#f46d03"/></linearGradient><path d="M70.429,40.168c0.437-0.393,0.923-0.69,1.434-0.911v2.026c-0.088,0.066-0.18,0.124-0.263,0.199 c-1.012,0.911-1.361,2.269-1.051,3.506c-0.001,0.001-0.002,0.002-0.002,0.003c-0.121,0.156-0.241,0.312-0.337,0.469 c-0.485-0.25-0.984-0.488-1.498-0.665C68.5,43.136,69.08,41.382,70.429,40.168z M66.854,56.256c-0.007-0.111,0-0.234-0.006-0.346 l-0.718,0.646C66.372,56.457,66.61,56.345,66.854,56.256z M63.483,57.903c0.596-0.37,1.203-0.713,1.828-1.006 c-1.988-1.401-4.735-1.319-6.609,0.367c-1.887,1.697-2.247,4.411-1.062,6.534c0.356-0.588,0.759-1.154,1.188-1.705 c-0.315-1.24,0.033-2.604,1.048-3.518C60.891,57.661,62.283,57.459,63.483,57.903z M55.351,59.708c0.118-0.58,0.31-1.132,0.576-1.68 c0.389-0.753,0.914-1.462,1.595-2.075c0.669-0.601,1.429-1.048,2.232-1.368c0.56-0.195,1.142-0.339,1.731-0.395 c1.902-0.198,3.862,0.377,5.376,1.684c0,0,0.001-0.004,0.001-0.004c-0.026-0.688,0.011-1.385,0.097-2.08 c-1.085-0.706-2.309-1.145-3.572-1.312l-0.474,0.426c-0.117-0.156-0.245-0.325-0.348-0.493c-0.001-0.001-0.001-0.002-0.002-0.002 c0,0,0,0,0,0c-0.672-0.036-1.361,0.015-2.043,0.154c0.001,0.001,0.001,0.002,0.002,0.003c-0.592,0.106-1.189,0.287-1.751,0.532 c-0.001-0.001-0.001-0.002-0.002-0.003c0,0,0,0-0.001,0c-0.868,0.354-1.682,0.872-2.429,1.544c-0.747,0.672-1.349,1.427-1.792,2.252 c0,0,0,0,0,0.001c0.001,0.001,0.002,0.001,0.003,0.002c-0.303,0.533-0.545,1.107-0.725,1.672l0.01,0.011 c-0.209,0.638-0.332,1.318-0.38,2.002c0,0,0,0,0,0.001c0.001,0.001,0.001,0.001,0.002,0.002c-0.028,0.286-0.03,0.573-0.007,0.836 l-0.002,0.002c0.033,1.274,0.34,2.537,0.928,3.69c0.698,0.012,1.384,0.036,2.078,0.122l0.012,0.013l0,0 C55.32,63.599,54.952,61.583,55.351,59.708z M56.484,65.234c0.123,0.006,0.246,0.013,0.356,0.031 c0.114-0.234,0.251-0.459,0.375-0.688L56.484,65.234z M70.771,47.824c-0.313,0.495-0.578,1.018-0.806,1.555 c-0.241,0.549-0.459,1.124-0.652,1.701l0.012,0.013c-0.194,0.602-0.352,1.217-0.459,1.836c-0.085,0.432-0.147,0.891-0.182,1.326 c-0.051,0.497-0.078,0.995-0.079,1.494c0.594-0.131,1.199-0.249,1.79-0.33c0.03-1.047,0.16-2.089,0.427-3.111 c0.146-0.629,0.353-1.242,0.609-1.828c0.13-0.344,0.278-0.672,0.434-0.994v-3.303c-0.04,0.053-0.088,0.102-0.127,0.156 C71.374,46.808,71.061,47.303,70.771,47.824z M46.422,62.594L46.422,62.594l0.01,0.011c0.052,0.664,0.143,1.318,0.296,1.963 c0,0.001,0,0.001,0,0.002c0.001,0,0.001,0,0.002,0.001c0.076,0.377,0.172,0.749,0.281,1.117c0.053,0.177,0.117,0.351,0.177,0.526 c0.048,0.141,0.093,0.282,0.145,0.421c0.548-0.233,1.084-0.454,1.641-0.624c-0.305-0.84-0.533-1.726-0.661-2.607L48.3,63.39 c-0.114-0.68-0.177-1.383-0.165-2.081c-0.017-0.625,0.028-1.234,0.122-1.841c0.045-0.609,0.163-1.19,0.306-1.769 c0.142-0.554,0.321-1.119,0.549-1.656c0.205-0.564,0.458-1.099,0.76-1.633c0.733-1.347,1.711-2.606,2.93-3.703 s2.561-1.924,3.991-2.523c0.549-0.233,1.109-0.428,1.679-0.585c0.57-0.157,1.151-0.276,1.742-0.357 c0.591-0.081,1.181-0.137,1.78-0.131c0.6-0.018,1.223,0.015,1.844,0.073c0.683,0.074,1.375,0.21,2.039,0.395 c0.874,0.234,1.719,0.54,2.534,0.945c0.24-0.523,0.504-1.045,0.793-1.566c-0.136-0.067-0.274-0.129-0.412-0.192 c-0.164-0.077-0.328-0.156-0.494-0.227c-0.354-0.147-0.715-0.282-1.082-0.398c0-0.001,0-0.001,0-0.002c-0.001,0-0.001,0-0.002-0.001 c-0.625-0.22-1.266-0.379-1.921-0.501l-0.01-0.011c-0.605-0.119-1.213-0.189-1.81-0.246c0-0.001,0-0.001,0-0.002 c-0.001,0-0.001,0-0.002,0c-0.609-0.045-1.194-0.063-1.793-0.045c0,0.001,0,0.002,0,0.002c-0.588,0.031-1.165,0.076-1.756,0.157 c0-0.001,0-0.002,0-0.003c-0.001,0-0.001,0-0.002,0c-0.579,0.094-1.158,0.213-1.728,0.37c0,0.001,0,0.002,0,0.003 c-0.582,0.144-1.153,0.326-1.714,0.546c0-0.001,0-0.002,0-0.003c-0.001,0-0.001,0-0.002,0.001c-1.746,0.669-3.384,1.669-4.852,2.989 c-1.468,1.321-2.635,2.844-3.484,4.51c0,0.001-0.001,0.001-0.001,0.002c0.001,0,0.002,0,0.003,0.001 c-0.278,0.535-0.532,1.095-0.749,1.646c-0.001,0-0.002,0-0.003-0.001c-0.204,0.563-0.383,1.102-0.525,1.681c0,0.001,0,0.001,0,0.002 c0.001,0,0.002,0,0.003,0c-0.155,0.566-0.261,1.16-0.354,1.742c-0.001,0-0.002,0-0.002,0c-0.068,0.582-0.112,1.166-0.143,1.763 c0,0.001,0,0.001,0,0.002c0.001,0,0.002,0,0.002,0C46.35,61.354,46.38,61.967,46.422,62.594z M69.476,60.989 c-0.57,0.157-1.13,0.352-1.667,0.598c-1.187,0.499-2.299,1.214-3.308,2.122c-1.009,0.908-1.838,1.938-2.459,3.066 c-0.302,0.508-0.568,1.056-0.771,1.595c-0.229,0.562-0.409,1.127-0.516,1.721c-0.129,0.489-0.213,0.999-0.261,1.512h1.776 c0.026-0.202,0.045-0.405,0.085-0.604l-0.012-0.013c0.118-0.581,0.274-1.172,0.492-1.747c0.205-0.563,0.459-1.124,0.774-1.644 c0.524-0.946,1.232-1.82,2.071-2.575c0.839-0.755,1.783-1.366,2.779-1.788c0.55-0.258,1.11-0.453,1.692-0.597 c0.562-0.147,1.143-0.244,1.713-0.291v-1.75c-0.208,0.018-0.416,0.032-0.622,0.064C70.651,60.715,70.046,60.832,69.476,60.989z M65.168,43.808c0.606,0.095,1.197,0.225,1.763,0.38c0.001,0,0.002,0,0.002,0.001c-0.046-1.95,0.745-3.917,2.304-5.32 c0.786-0.707,1.683-1.206,2.626-1.498v-1.811c-1.372,0.33-2.683,0.988-3.805,1.997C66.21,39.22,65.242,41.49,65.168,43.808z M53.09,55.903c0.524-0.946,1.232-1.82,2.071-2.575s1.783-1.366,2.779-1.788c0.55-0.258,1.11-0.453,1.692-0.597 c0.595-0.156,1.212-0.26,1.814-0.304c0.689-0.051,1.388-0.039,2.069,0.059c1.316,0.145,2.593,0.537,3.77,1.186 c0.13-0.567,0.286-1.158,0.491-1.722c-0.4-0.208-0.814-0.379-1.23-0.526l-0.001,0.001c-0.624-0.245-1.263-0.429-1.932-0.539 c0-0.001-0.001-0.002-0.001-0.002c0,0-0.001,0-0.001,0c-0.678-0.148-1.361-0.222-2.059-0.234c0,0.001,0.001,0.002,0.001,0.002 c-0.611-0.02-1.224,0.01-1.828,0.103c0-0.001-0.001-0.002-0.001-0.003c0,0-0.001,0-0.001,0c-0.589,0.056-1.194,0.174-1.764,0.331 c0,0.001,0.001,0.002,0.001,0.003c-0.57,0.157-1.13,0.352-1.667,0.598c0-0.001-0.001-0.002-0.001-0.003c0,0-0.001,0-0.001,0.001 c-1.188,0.499-2.299,1.214-3.308,2.122c-1.009,0.908-1.838,1.938-2.459,3.066c0,0,0,0.001-0.001,0.001 c0.001,0,0.002,0.001,0.003,0.001c-0.302,0.508-0.568,1.056-0.771,1.595c-0.001,0-0.002-0.001-0.003-0.001 c-0.229,0.562-0.409,1.126-0.515,1.719c0,0,0,0.001,0,0.001c0.001,0,0.002,0.001,0.003,0.001c-0.156,0.591-0.264,1.21-0.297,1.832 c-0.001,0-0.002-0.001-0.002-0.001c-0.06,0.67-0.059,1.357-0.008,2.046l0.002,0.003l0,0l0.01,0.011v0l0.002,0.002 c0.052,0.664,0.154,1.331,0.332,1.978l-0.001,0.001c0.102,0.429,0.242,0.847,0.393,1.278c0.582-0.144,1.161-0.238,1.776-0.293 c-0.508-1.25-0.775-2.575-0.792-3.912c-0.001-0.687,0.048-1.371,0.183-2.038l-0.012-0.013c0.118-0.58,0.274-1.171,0.492-1.747 C52.521,56.984,52.776,56.423,53.09,55.903z M61.635,43.571c0.599-0.018,1.173-0.013,1.756,0.031c0.001,0,0.002,0,0.002,0 c0.119-2.715,1.297-5.385,3.485-7.354c1.464-1.317,3.188-2.134,4.984-2.492v-1.795c-2.217,0.375-4.362,1.355-6.163,2.976 C63.144,37.235,61.768,40.37,61.635,43.571z M49.585,71.435l-0.187,0.168h5.767c0.031-0.389,0.07-0.777,0.116-1.165 C53.351,70.324,51.387,70.644,49.585,71.435z M63.342,32.315c-3.46,3.112-5.235,7.411-5.253,11.742 c0.593-0.131,1.198-0.248,1.788-0.329c0.001,0,0.002,0,0.002,0c0.086-3.728,1.654-7.414,4.642-10.101 c2.139-1.924,4.702-3.057,7.343-3.446v-1.784C68.794,28.804,65.818,30.087,63.342,32.315z M34.569,60.569 c2.988-2.688,6.832-3.87,10.548-3.562c0-0.001,0-0.002,0-0.002c0.131-0.592,0.299-1.169,0.503-1.731 c-4.308-0.439-8.757,0.861-12.23,3.985c-3.473,3.124-5.235,7.411-5.253,11.742c0.581-0.144,1.173-0.25,1.775-0.317 c0.001,0,0.002,0,0.002,0C30,66.954,31.581,63.256,34.569,60.569z M69.287,64.787c-0.868,0.354-1.682,0.872-2.429,1.544 c-0.747,0.672-1.349,1.427-1.792,2.252c-0.303,0.533-0.546,1.107-0.725,1.672l0.012,0.013c-0.14,0.429-0.229,0.879-0.295,1.335 h1.776c0.012-0.068,0.018-0.138,0.033-0.206c0.118-0.58,0.31-1.132,0.576-1.68c0.389-0.753,0.914-1.462,1.595-2.075 c0.669-0.601,1.429-1.048,2.232-1.368c0.516-0.18,1.051-0.308,1.594-0.372v-1.761c-0.275,0.027-0.551,0.059-0.825,0.115 C70.446,64.362,69.849,64.542,69.287,64.787z M67.636,71.604h1.837c0.194-0.496,0.494-0.958,0.918-1.339 c0.435-0.392,0.942-0.648,1.472-0.785v-1.796c-0.954,0.162-1.876,0.577-2.647,1.27C68.4,69.688,67.883,70.617,67.636,71.604z M53.306,66.926c-0.615,0.055-1.231,0.135-1.861,0.251c-0.592,0.106-1.187,0.262-1.772,0.456c-0.558,0.17-1.119,0.39-1.657,0.637 c-0.549,0.233-1.063,0.506-1.578,0.803c-0.89,0.54-1.734,1.157-2.534,1.876c-0.234,0.211-0.443,0.436-0.661,0.656h2.642 c0.461-0.36,0.933-0.699,1.42-0.988c0.528-0.309,1.054-0.568,1.591-0.815c0.549-0.233,1.122-0.44,1.704-0.584 c0.598-0.206,1.241-0.334,1.882-0.412c1.033-0.17,2.096-0.201,3.152-0.108c0.131-0.592,0.299-1.17,0.504-1.734 c-0.497-0.051-0.995-0.078-1.494-0.079C54.195,66.885,53.757,66.9,53.306,66.926z M45.241,67.756 c0.166-0.102,0.331-0.204,0.496-0.282c-0.197-0.509-0.369-1.042-0.503-1.56c-1.627-0.385-3.432,0.006-4.769,1.209 c-1.301,1.17-1.878,2.862-1.714,4.481h1.762c-0.173-1.142,0.207-2.344,1.129-3.173C42.654,67.52,44.044,67.317,45.241,67.756z M44.818,64.082c0-0.001,0-0.002,0-0.002c-0.093-0.603-0.16-1.205-0.204-1.806c-2.301-0.159-4.66,0.566-6.508,2.228 c-1.848,1.662-2.817,3.932-2.902,6.237c0.593,0.106,1.184,0.237,1.775,0.393c0.001,0,0.002,0,0.002,0.001 c-0.046-1.95,0.731-3.905,2.304-5.32C40.858,64.397,42.884,63.83,44.818,64.082z M68.708,57.553 c-0.582,0.144-1.153,0.326-1.714,0.546c-1.746,0.669-3.384,1.669-4.852,2.989c-1.468,1.321-2.635,2.844-3.484,4.51 c-0.278,0.535-0.532,1.095-0.749,1.646c-0.205,0.563-0.383,1.103-0.526,1.683c-0.155,0.566-0.261,1.16-0.354,1.742 c-0.036,0.309-0.052,0.624-0.076,0.935h1.773c0.017-0.148,0.027-0.296,0.05-0.444c0.045-0.609,0.163-1.19,0.306-1.769 c0.142-0.554,0.321-1.119,0.55-1.656c0.205-0.563,0.458-1.099,0.76-1.633c0.733-1.347,1.711-2.606,2.93-3.703 s2.561-1.924,3.991-2.523c0.549-0.233,1.109-0.428,1.679-0.585c0.57-0.157,1.151-0.276,1.742-0.357 c0.376-0.052,0.753-0.085,1.13-0.107v-1.771c-0.475,0.03-0.945,0.061-1.425,0.127C69.859,57.277,69.279,57.396,68.708,57.553z M36.927,63.19c2.188-1.969,4.969-2.858,7.681-2.69c0-0.001,0-0.002,0-0.002c0.018-0.585,0.087-1.167,0.155-1.75 c-3.197-0.206-6.459,0.833-9.015,3.131c-2.555,2.299-3.932,5.433-4.065,8.634c0.586-0.006,1.173-0.013,1.756,0.031 c0.001,0,0.002,0,0.002,0C33.561,67.83,34.739,65.159,36.927,63.19z" fill="url(#a)"/></svg>