<?xml version="1.0" encoding="UTF-8"?><svg xmlns="http://www.w3.org/2000/svg" xmlns:xlink="http://www.w3.org/1999/xlink" height="103.3" preserveAspectRatio="xMidYMid meet" version="1.0" viewBox="0.0 0.0 1021.9 103.3" width="1021.9" zoomAndPan="magnify"><g data-name="Layer 2"><g data-name="Layer 2" fill="#f1b95c" id="change1_1"><path d="M127.88 83.92L70.98 83.92 70.98 27.77 103.55 27.77 103.55 59.91 81.81 59.78 81.84 54.18 97.95 54.27 97.95 33.37 76.58 33.37 76.58 78.32 122.28 78.32 122.28 5.6 5.91 5.6 5.91 78.32 51.61 78.32 51.61 33.37 30.24 33.37 30.24 54.27 46.35 54.18 46.38 59.78 24.64 59.91 24.64 27.77 57.21 27.77 57.21 83.92 0.31 83.92 0.31 0 127.88 0 127.88 83.92z"/><path d="M0 97.7H127.36V103.3H0z"/><path d="M255.6 83.92L198.7 83.92 198.7 27.77 231.27 27.77 231.27 59.91 209.53 59.78 209.56 54.18 225.67 54.27 225.67 33.37 204.3 33.37 204.3 78.32 250 78.32 250 5.6 133.62 5.6 133.62 78.32 179.32 78.32 179.32 33.37 157.95 33.37 157.95 54.27 174.06 54.18 174.1 59.78 152.35 59.91 152.35 27.77 184.92 27.77 184.92 83.92 128.02 83.92 128.02 0 255.6 0 255.6 83.92z"/><path d="M127.71 97.7H255.07V103.3H127.71z"/><path d="M383.31 83.92L326.42 83.92 326.42 27.77 358.98 27.77 358.98 59.91 337.24 59.78 337.27 54.18 353.38 54.27 353.38 33.37 332.01 33.37 332.01 78.32 377.71 78.32 377.71 5.6 261.34 5.6 261.34 78.32 307.04 78.32 307.04 33.37 285.67 33.37 285.67 54.27 301.78 54.18 301.81 59.78 280.07 59.91 280.07 27.77 312.64 27.77 312.64 83.92 255.74 83.92 255.74 0 383.31 0 383.31 83.92z"/><path d="M255.43 97.7H382.79V103.3H255.43z"/><path d="M511.03 83.92L454.13 83.92 454.13 27.77 486.7 27.77 486.7 59.91 464.96 59.78 464.99 54.18 481.1 54.27 481.1 33.37 459.73 33.37 459.73 78.32 505.43 78.32 505.43 5.6 389.05 5.6 389.05 78.32 434.75 78.32 434.75 33.37 413.38 33.37 413.38 54.27 429.49 54.18 429.53 59.78 407.78 59.91 407.78 27.77 440.35 27.77 440.35 83.92 383.45 83.92 383.45 0 511.03 0 511.03 83.92z"/><path d="M383.14 97.7H510.5V103.3H383.14z"/><path d="M638.74 83.92L581.85 83.92 581.85 27.77 614.41 27.77 614.41 59.91 592.67 59.78 592.7 54.18 608.81 54.27 608.81 33.37 587.45 33.37 587.45 78.32 633.14 78.32 633.14 5.6 516.77 5.6 516.77 78.32 562.47 78.32 562.47 33.37 541.1 33.37 541.1 54.27 557.21 54.18 557.24 59.78 535.5 59.91 535.5 27.77 568.07 27.77 568.07 83.92 511.17 83.92 511.17 0 638.74 0 638.74 83.92z"/><path d="M510.86 97.7H638.22V103.3H510.86z"/><path d="M766.46 83.92L709.56 83.92 709.56 27.77 742.13 27.77 742.13 59.91 720.39 59.78 720.42 54.18 736.53 54.27 736.53 33.37 715.16 33.37 715.16 78.32 760.86 78.32 760.86 5.6 644.48 5.6 644.48 78.32 690.18 78.32 690.18 33.37 668.81 33.37 668.81 54.27 684.92 54.18 684.96 59.78 663.21 59.91 663.21 27.77 695.78 27.77 695.78 83.92 638.88 83.92 638.88 0 766.46 0 766.46 83.92z"/><path d="M638.57 97.7H765.9300000000001V103.3H638.57z"/><path d="M894.17 83.92L837.27 83.92 837.27 27.77 869.84 27.77 869.84 59.91 848.1 59.78 848.13 54.18 864.24 54.27 864.24 33.37 842.88 33.37 842.88 78.32 888.57 78.32 888.57 5.6 772.2 5.6 772.2 78.32 817.9 78.32 817.9 33.37 796.53 33.37 796.53 54.27 812.64 54.18 812.67 59.78 790.93 59.91 790.93 27.77 823.5 27.77 823.5 83.92 766.6 83.92 766.6 0 894.17 0 894.17 83.92z"/><path d="M766.29 97.7H893.65V103.3H766.29z"/><path d="M1021.89 83.92L964.99 83.92 964.99 27.77 997.56 27.77 997.56 59.91 975.82 59.78 975.85 54.18 991.96 54.27 991.96 33.37 970.59 33.37 970.59 78.32 1016.29 78.32 1016.29 5.6 899.91 5.6 899.91 78.32 945.61 78.32 945.61 33.37 924.24 33.37 924.24 54.27 940.35 54.18 940.39 59.78 918.64 59.91 918.64 27.77 951.21 27.77 951.21 83.92 894.31 83.92 894.31 0 1021.89 0 1021.89 83.92z"/><path d="M894 97.7H1021.36V103.3H894z"/></g></g></svg>