<?xml version="1.0" encoding="UTF-8"?><svg xmlns="http://www.w3.org/2000/svg" xmlns:xlink="http://www.w3.org/1999/xlink" data-name="Layer 2" height="16.5" preserveAspectRatio="xMidYMid meet" version="1.0" viewBox="0.0 0.0 151.8 16.5" width="151.8" zoomAndPan="magnify"><g data-name="Ñëîé 1"><g fill="#fdcf77" id="change1_1"><path d="M151.8 16.5L137.45 16.5 137.45 4.84 146.05 4.84 146.05 10.67 143.68 10.67 143.68 7.21 139.82 7.21 139.82 14.13 149.43 14.13 149.43 2.37 134.84 2.37 134.84 16.5 115.53 16.5 115.53 0 129.85 0 129.85 11.85 121.26 11.85 121.26 6.03 123.62 6.03 123.62 9.48 127.48 9.48 127.48 2.37 117.9 2.37 117.9 14.13 132.47 14.13 132.47 0 151.8 0 151.8 16.5z"/><path d="M113.29 16.5L98.94 16.5 98.94 4.84 107.54 4.84 107.54 10.67 105.17 10.67 105.17 7.21 101.31 7.21 101.31 14.13 110.92 14.13 110.92 2.37 96.33 2.37 96.33 16.5 77.02 16.5 77.02 0 91.34 0 91.34 11.85 82.75 11.85 82.75 6.03 85.12 6.03 85.12 9.48 88.97 9.48 88.97 2.37 79.39 2.37 79.39 14.13 93.96 14.13 93.96 0 113.29 0 113.29 16.5z"/><path d="M74.78 16.5L60.43 16.5 60.43 4.84 69.03 4.84 69.03 10.67 66.66 10.67 66.66 7.21 62.8 7.21 62.8 14.13 72.41 14.13 72.41 2.37 57.82 2.37 57.82 16.5 38.51 16.5 38.51 0 52.83 0 52.83 11.85 44.24 11.85 44.24 6.03 46.61 6.03 46.61 9.48 50.46 9.48 50.46 2.37 40.88 2.37 40.88 14.13 55.45 14.13 55.45 0 74.78 0 74.78 16.5z"/><path d="M36.28 16.5L21.93 16.5 21.93 4.84 30.52 4.84 30.52 10.67 28.15 10.67 28.15 7.21 24.29 7.21 24.29 14.13 33.9 14.13 33.9 2.37 19.31 2.37 19.31 16.5 0 16.5 0 0 14.32 0 14.32 11.85 5.73 11.85 5.73 6.03 8.1 6.03 8.1 9.48 11.95 9.48 11.95 2.37 2.37 2.37 2.37 14.13 16.94 14.13 16.94 0 36.28 0 36.28 16.5z"/></g></g></svg>